<svg width="400" height="400" viewBox="0 0 400 400" fill="none" xmlns="http://www.w3.org/2000/svg">
<path d="M189.731 102.011L2.93401 0.99751L189.731 190.524V102.011Z" fill="#62F0FE"/>
<path d="M189.731 102.011L2.93401 0.99751L189.731 190.524V102.011Z" fill="url(#paint0_linear_10_25)"/>
<path d="M189.731 102.011L2.93401 0.99751L189.731 190.524V102.011Z" fill="url(#paint1_linear_10_25)"/>
<path d="M152.078 245.885L109.536 189.526L0.48912 400L152.078 245.885Z" fill="#FF81DA"/>
<path d="M152.078 245.885L109.536 189.526L0.48912 400L152.078 245.885Z" fill="url(#paint2_linear_10_25)"/>
<path d="M152.078 245.885L109.536 189.526L0.48912 400L152.078 245.885Z" fill="url(#paint3_linear_10_25)" fill-opacity="0.4"/>
<path d="M146.699 238.404L189.731 190.524L3.423 1.49624L92.4206 167.581L146.699 238.404Z" fill="#1ABBFF"/>
<path d="M146.699 238.404L189.731 190.524L3.423 1.49624L92.4206 167.581L146.699 238.404Z" fill="url(#paint4_linear_10_25)"/>
<path d="M146.699 238.404L189.731 190.524L3.423 1.49624L92.4206 167.581L146.699 238.404Z" fill="url(#paint5_linear_10_25)"/>
<path d="M146.699 238.404L189.731 190.524L3.423 1.49624L92.4206 167.581L146.699 238.404Z" fill="url(#paint6_linear_10_25)"/>
<path d="M190.709 295.763L189.731 190.524L146.699 238.676L190.709 296.259V295.763Z" fill="#6273F7"/>
<path d="M190.709 295.763L189.731 190.524L146.699 238.676L190.709 296.259V295.763Z" fill="url(#paint7_linear_10_25)" fill-opacity="0.4"/>
<path d="M-6.10352e-05 400L190.709 296.424L151.789 245.387L-6.10352e-05 400Z" fill="#FF81DA"/>
<path d="M-6.10352e-05 400L190.709 296.424L151.789 245.387L-6.10352e-05 400Z" fill="url(#paint8_linear_10_25)"/>
<path d="M-6.10352e-05 400L190.709 296.424L151.789 245.387L-6.10352e-05 400Z" fill="url(#paint9_linear_10_25)" fill-opacity="0.4"/>
<path d="M151.204 244.93C150.483 244.237 149.762 243.544 149.041 242.851C146.581 245.445 144.122 248.039 141.662 250.633C97.3901 297.329 53.1179 344.025 8.84574 390.721C6.38618 393.315 3.9266 395.91 1.46704 398.504C3.96264 395.944 6.45827 393.385 8.95387 390.825C53.8748 344.753 98.7958 298.681 143.717 252.609C146.212 250.049 148.708 247.489 151.204 244.93Z" fill="url(#paint10_linear_10_25)"/>
<path d="M4.89001 2.99253C7.89877 6.13991 10.9099 9.28495 13.9234 12.4277C41.0449 40.712 68.3588 68.8067 95.8649 96.712C123.371 124.617 151.069 152.333 178.96 179.859C182.059 182.918 185.16 185.974 188.264 189.027C185.255 185.88 182.244 182.735 179.231 179.592C152.109 151.308 124.795 123.213 97.2892 95.308C69.7831 67.4027 42.0847 39.6871 14.194 12.1609C11.0951 9.10244 7.99373 6.04631 4.89001 2.99253Z" fill="#93E9FF"/>
<path d="M109.685 189.412C109.585 189.488 109.486 189.564 109.387 189.64C110.723 191.423 112.06 193.206 113.398 194.988C125.44 211.025 137.549 227.012 149.725 242.947C161.901 258.882 174.144 274.766 186.454 290.599C187.822 292.358 189.191 294.116 190.56 295.874C190.659 295.799 190.759 295.723 190.858 295.647C189.522 293.864 188.185 292.081 186.847 290.299C174.805 274.261 162.696 258.275 150.52 242.34C138.344 226.405 126.1 210.521 113.79 194.688C112.423 192.929 111.054 191.17 109.685 189.412Z" fill="#7195FF"/>
<path d="M189.731 190.524C189.01 191.302 188.289 192.081 187.569 192.861C181.087 199.878 174.655 206.94 168.274 214.047C161.892 221.155 155.561 228.307 149.28 235.504C148.582 236.304 147.885 237.104 147.188 237.905C147.91 237.127 148.631 236.348 149.351 235.568C155.833 228.551 162.264 221.489 168.646 214.381C175.027 207.274 181.358 200.122 187.639 192.924C188.337 192.125 189.034 191.325 189.731 190.524Z" fill="#7195FF"/>
<path d="M190.22 296.259L110.024 190.524L1.46704 399.002L190.22 296.259Z" fill="url(#paint11_linear_10_25)"/>
<path d="M210.269 101.014L397.066 0L210.269 189.526V101.014Z" fill="#62F0FE"/>
<path d="M210.269 101.014L397.066 0L210.269 189.526V101.014Z" fill="url(#paint12_linear_10_25)"/>
<path d="M210.269 101.014L397.066 0L210.269 189.526V101.014Z" fill="url(#paint13_linear_10_25)"/>
<path d="M247.922 244.888L290.464 188.529L399.511 399.002L247.922 244.888Z" fill="#FF81DA"/>
<path d="M247.922 244.888L290.464 188.529L399.511 399.002L247.922 244.888Z" fill="url(#paint14_linear_10_25)"/>
<path d="M247.922 244.888L290.464 188.529L399.511 399.002L247.922 244.888Z" fill="url(#paint15_linear_10_25)" fill-opacity="0.4"/>
<path d="M253.301 237.406L210.269 189.526L396.577 0.498731L307.579 166.584L253.301 237.406Z" fill="#1ABBFF"/>
<path d="M253.301 237.406L210.269 189.526L396.577 0.498731L307.579 166.584L253.301 237.406Z" fill="url(#paint16_linear_10_25)"/>
<path d="M253.301 237.406L210.269 189.526L396.577 0.498731L307.579 166.584L253.301 237.406Z" fill="url(#paint17_linear_10_25)"/>
<path d="M253.301 237.406L210.269 189.526L396.577 0.498731L307.579 166.584L253.301 237.406Z" fill="url(#paint18_linear_10_25)"/>
<path d="M209.291 294.765L210.269 189.526L253.301 237.678L209.291 295.262V294.765Z" fill="#6273F7"/>
<path d="M209.291 294.765L210.269 189.526L253.301 237.678L209.291 295.262V294.765Z" fill="url(#paint19_linear_10_25)" fill-opacity="0.4"/>
<path d="M400 399.003L209.291 295.426L248.211 244.389L400 399.003Z" fill="#FF81DA"/>
<path d="M400 399.003L209.291 295.426L248.211 244.389L400 399.003Z" fill="url(#paint20_linear_10_25)"/>
<path d="M400 399.003L209.291 295.426L248.211 244.389L400 399.003Z" fill="url(#paint21_linear_10_25)" fill-opacity="0.4"/>
<path d="M248.796 243.932C249.517 243.239 250.238 242.546 250.959 241.853C253.419 244.447 255.878 247.042 258.338 249.636C302.61 296.332 346.882 343.028 391.154 389.724C393.614 392.318 396.073 394.912 398.533 397.506C396.037 394.947 393.542 392.387 391.046 389.828C346.125 343.755 301.204 297.683 256.283 251.611C253.788 249.052 251.292 246.492 248.796 243.932Z" fill="url(#paint22_linear_10_25)"/>
<path d="M395.11 1.99502C392.101 5.1424 389.09 8.28744 386.077 11.4301C358.955 39.7145 331.641 67.8092 304.135 95.7145C276.629 123.62 248.931 151.335 221.04 178.862C217.941 181.92 214.84 184.976 211.736 188.03C214.745 184.883 217.756 181.738 220.769 178.595C247.891 150.311 275.205 122.216 302.711 94.3105C330.217 66.4052 357.915 38.6895 385.806 11.1634C388.905 8.10493 392.006 5.0488 395.11 1.99502Z" fill="#93E9FF"/>
<path d="M290.315 188.415C290.415 188.491 290.514 188.567 290.613 188.642C289.277 190.426 287.94 192.208 286.602 193.99C274.56 210.028 262.451 226.014 250.275 241.949C238.099 257.885 225.856 273.769 213.546 289.601C212.178 291.36 210.809 293.119 209.44 294.877C209.341 294.801 209.241 294.725 209.142 294.649C210.478 292.866 211.815 291.083 213.153 289.301C225.195 273.264 237.304 257.277 249.48 241.342C261.656 225.407 273.9 209.523 286.21 193.69C287.577 191.931 288.946 190.173 290.315 188.415Z" fill="#7195FF"/>
<path d="M210.269 189.526C210.99 190.305 211.711 191.084 212.431 191.864C218.913 198.881 225.345 205.943 231.726 213.05C238.108 220.157 244.439 227.309 250.72 234.507C251.418 235.307 252.115 236.107 252.812 236.908C252.09 236.129 251.369 235.35 250.649 234.57C244.167 227.553 237.736 220.491 231.354 213.384C224.973 206.277 218.642 199.124 212.361 191.927C211.663 191.127 210.966 190.327 210.269 189.526Z" fill="#7195FF"/>
<path d="M209.78 295.262L289.976 189.526L398.533 398.005L209.78 295.262Z" fill="url(#paint23_linear_10_25)"/>
<defs>
<linearGradient id="paint0_linear_10_25" x1="166.198" y1="118.514" x2="187.075" y2="103.406" gradientUnits="userSpaceOnUse">
<stop stop-color="white" stop-opacity="0"/>
<stop offset="1" stop-color="white"/>
</linearGradient>
<linearGradient id="paint1_linear_10_25" x1="192.182" y1="127.015" x2="152.454" y2="179.772" gradientUnits="userSpaceOnUse">
<stop stop-color="#62F0FE" stop-opacity="0"/>
<stop offset="1" stop-color="#4272F2"/>
</linearGradient>
<linearGradient id="paint2_linear_10_25" x1="151.589" y1="235.91" x2="-0.238486" y2="397.01" gradientUnits="userSpaceOnUse">
<stop offset="0.104459" stop-color="#8051EA"/>
<stop offset="0.566469" stop-color="#FF81DA"/>
</linearGradient>
<linearGradient id="paint3_linear_10_25" x1="15.159" y1="385.037" x2="0.698021" y2="399.216" gradientUnits="userSpaceOnUse">
<stop stop-color="white" stop-opacity="0"/>
<stop offset="1" stop-color="white"/>
</linearGradient>
<linearGradient id="paint4_linear_10_25" x1="36.6748" y1="47.3815" x2="192.488" y2="187.457" gradientUnits="userSpaceOnUse">
<stop stop-color="#1EB6FD"/>
<stop offset="1" stop-color="#4773FA"/>
</linearGradient>
<linearGradient id="paint5_linear_10_25" x1="153.056" y1="170.574" x2="151.022" y2="224.935" gradientUnits="userSpaceOnUse">
<stop offset="0.322115" stop-color="#3F75FB"/>
<stop offset="1" stop-color="#8051EA"/>
</linearGradient>
<linearGradient id="paint6_linear_10_25" x1="145.232" y1="242.394" x2="-1.23326" y2="3.55299" gradientUnits="userSpaceOnUse">
<stop offset="0.00452768" stop-color="#8052EA" stop-opacity="0.5"/>
<stop offset="0.381945" stop-color="#3A81FA"/>
<stop offset="0.730415" stop-color="#1CCFF7"/>
</linearGradient>
<linearGradient id="paint7_linear_10_25" x1="163.325" y1="249.875" x2="184.718" y2="200.872" gradientUnits="userSpaceOnUse">
<stop stop-color="#D03BDD"/>
<stop offset="1" stop-color="#3B81FA"/>
</linearGradient>
<linearGradient id="paint8_linear_10_25" x1="-6.97487e-05" y1="399.5" x2="171.767" y2="272.554" gradientUnits="userSpaceOnUse">
<stop offset="0.427049" stop-color="#FF81DA"/>
<stop offset="0.949168" stop-color="#8051EA"/>
</linearGradient>
<linearGradient id="paint9_linear_10_25" x1="21.8925" y1="377.984" x2="0.399468" y2="398.395" gradientUnits="userSpaceOnUse">
<stop stop-color="white" stop-opacity="0"/>
<stop offset="1" stop-color="white"/>
</linearGradient>
<linearGradient id="paint10_linear_10_25" x1="0.978046" y1="398.005" x2="152.628" y2="246.387" gradientUnits="userSpaceOnUse">
<stop offset="0.26368" stop-color="#FFB6FF"/>
<stop offset="0.511737" stop-color="#F8E9FF" stop-opacity="0.7"/>
<stop offset="1" stop-color="#8051EA"/>
</linearGradient>
<linearGradient id="paint11_linear_10_25" x1="150.611" y1="244.389" x2="-15.6589" y2="372.37" gradientUnits="userSpaceOnUse">
<stop stop-opacity="0.44"/>
<stop offset="0.177885" stop-color="white" stop-opacity="0"/>
</linearGradient>
<linearGradient id="paint12_linear_10_25" x1="233.802" y1="117.516" x2="212.925" y2="102.408" gradientUnits="userSpaceOnUse">
<stop stop-color="white" stop-opacity="0"/>
<stop offset="1" stop-color="white"/>
</linearGradient>
<linearGradient id="paint13_linear_10_25" x1="207.818" y1="126.017" x2="247.546" y2="178.774" gradientUnits="userSpaceOnUse">
<stop stop-color="#62F0FE" stop-opacity="0"/>
<stop offset="1" stop-color="#4272F2"/>
</linearGradient>
<linearGradient id="paint14_linear_10_25" x1="248.411" y1="234.913" x2="400.238" y2="396.012" gradientUnits="userSpaceOnUse">
<stop offset="0.104459" stop-color="#8051EA"/>
<stop offset="0.566469" stop-color="#FF81DA"/>
</linearGradient>
<linearGradient id="paint15_linear_10_25" x1="384.841" y1="384.04" x2="399.302" y2="398.218" gradientUnits="userSpaceOnUse">
<stop stop-color="white" stop-opacity="0"/>
<stop offset="1" stop-color="white"/>
</linearGradient>
<linearGradient id="paint16_linear_10_25" x1="363.325" y1="46.384" x2="207.512" y2="186.46" gradientUnits="userSpaceOnUse">
<stop stop-color="#1EB6FD"/>
<stop offset="1" stop-color="#4773FA"/>
</linearGradient>
<linearGradient id="paint17_linear_10_25" x1="246.944" y1="169.576" x2="248.978" y2="223.937" gradientUnits="userSpaceOnUse">
<stop offset="0.322115" stop-color="#3F75FB"/>
<stop offset="1" stop-color="#8051EA"/>
</linearGradient>
<linearGradient id="paint18_linear_10_25" x1="254.768" y1="241.397" x2="401.233" y2="2.55548" gradientUnits="userSpaceOnUse">
<stop offset="0.00452768" stop-color="#8052EA" stop-opacity="0.5"/>
<stop offset="0.381945" stop-color="#3A81FA"/>
<stop offset="0.730415" stop-color="#1CCFF7"/>
</linearGradient>
<linearGradient id="paint19_linear_10_25" x1="236.675" y1="248.878" x2="215.282" y2="199.875" gradientUnits="userSpaceOnUse">
<stop stop-color="#D03BDD"/>
<stop offset="1" stop-color="#3B81FA"/>
</linearGradient>
<linearGradient id="paint20_linear_10_25" x1="400" y1="398.502" x2="228.233" y2="271.557" gradientUnits="userSpaceOnUse">
<stop offset="0.427049" stop-color="#FF81DA"/>
<stop offset="0.949168" stop-color="#8051EA"/>
</linearGradient>
<linearGradient id="paint21_linear_10_25" x1="378.107" y1="376.986" x2="399.601" y2="397.398" gradientUnits="userSpaceOnUse">
<stop stop-color="white" stop-opacity="0"/>
<stop offset="1" stop-color="white"/>
</linearGradient>
<linearGradient id="paint22_linear_10_25" x1="399.022" y1="397.007" x2="247.372" y2="245.389" gradientUnits="userSpaceOnUse">
<stop offset="0.26368" stop-color="#FFB6FF"/>
<stop offset="0.511737" stop-color="#F8E9FF" stop-opacity="0.7"/>
<stop offset="1" stop-color="#8051EA"/>
</linearGradient>
<linearGradient id="paint23_linear_10_25" x1="249.389" y1="243.391" x2="415.659" y2="371.373" gradientUnits="userSpaceOnUse">
<stop stop-opacity="0.44"/>
<stop offset="0.177885" stop-color="white" stop-opacity="0"/>
</linearGradient>
</defs>
</svg>
